<?xml version="1.0" standalone="no"?>
<!DOCTYPE svg PUBLIC "-//W3C//DTD SVG 20010904//EN"
 "http://www.w3.org/TR/2001/REC-SVG-20010904/DTD/svg10.dtd">
<svg version="1.0" xmlns="http://www.w3.org/2000/svg"
 width="260.000000pt" height="260.000000pt" viewBox="0 0 260.000000 260.000000"
 preserveAspectRatio="xMidYMid meet">
<metadata>
Created by potrace 1.11, written by Peter Selinger 2001-2013
</metadata>
<g transform="translate(0.000000,260.000000) scale(0.100000,-0.100000)"
fill="#000000" stroke="none">
<path d="M0 1550 l0 -820 234 0 234 0 0 -227 c1 -126 1 -256 1 -290 l1 -62
158 109 c86 59 276 189 422 289 l265 181 642 0 643 0 0 820 0 820 -1300 0
-1300 0 0 -820z m2500 0 l0 -720 -609 0 -609 0 -53 -37 c-30 -20 -117 -80
-194 -133 -158 -109 -445 -304 -460 -312 -7 -4 -9 78 -8 238 l2 244 -234 0
-235 0 0 720 0 720 1200 0 1200 0 0 -720z"/>
<path d="M597 1783 c-56 -87 -134 -206 -172 -265 -39 -60 -96 -147 -127 -195
-31 -49 -70 -109 -87 -135 l-30 -48 119 0 119 0 36 55 c19 31 35 60 35 65 0
28 47 37 205 36 l160 -1 12 -37 c11 -35 20 -77 22 -105 1 -10 31 -13 117 -13
105 0 115 2 110 18 -2 9 -46 189 -98 400 l-93 382 -113 0 -112 0 -103 -157z
m187 -116 c2 -15 12 -63 21 -107 9 -44 14 -84 11 -89 -4 -5 -49 -9 -101 -9
l-95 0 16 29 c8 17 40 70 70 120 29 49 54 95 54 102 1 19 18 -16 24 -46z"/>
<path d="M1363 1928 c-1 -7 -22 -114 -47 -238 -25 -124 -61 -298 -79 -388
l-33 -163 115 3 115 3 19 95 c10 52 22 98 25 102 4 4 64 8 133 9 149 2 231 25
305 82 85 66 124 152 120 263 -4 99 -52 168 -146 212 -53 25 -62 26 -291 30
-192 3 -236 1 -236 -10z m384 -178 c40 -15 63 -56 56 -105 -12 -87 -59 -115
-193 -117 -50 0 -92 1 -95 3 -3 4 18 115 40 207 5 20 11 22 84 22 43 0 91 -5
108 -10z"/>
<path d="M2190 1938 c0 -2 -34 -169 -76 -373 -41 -203 -77 -382 -79 -397 l-4
-28 114 0 c63 0 115 2 115 5 0 3 20 106 45 228 25 122 47 233 50 247 6 32 54
268 60 298 5 22 4 22 -110 22 -63 0 -115 -1 -115 -2z"/>
</g>
</svg>
