<svg width="18" height="19" viewBox="0 0 18 19" fill="none" xmlns="http://www.w3.org/2000/svg">
<path d="M1 0.707463H0.707463V1V12V12.2925H1H7.7052L7.66901 16.9977L7.66312 17.764L8.17815 17.1966L12.6295 12.2925H17H17.2925V12V1V0.707463H17H1Z" stroke="white" stroke-width="0.585075"/>
<path d="M6.25279 8.64H4.09746L3.51162 10H2L5.24745 3H6.65781L7.88013 10H6.4553L6.25279 8.64ZM6.03581 7.18L5.69587 4.91L4.7267 7.18H6.03581Z" fill="white"/>
<path d="M11.4468 3C12.1025 3 12.6088 3.19667 12.9656 3.59C13.3224 3.98333 13.5008 4.53667 13.5008 5.25C13.5008 5.83667 13.3972 6.35 13.1898 6.79C12.9873 7.23 12.6956 7.57 12.3147 7.81C11.9386 8.05 11.4998 8.17 10.9984 8.17H9.98579L9.72541 10H8.29335L9.30592 3H11.4468ZM11.0634 6.61C11.3817 6.61 11.6252 6.50667 11.7939 6.3C11.9675 6.09333 12.0543 5.8 12.0543 5.42C12.0543 5.13333 11.9844 4.92 11.8446 4.78C11.7096 4.63333 11.5143 4.56 11.2587 4.56H10.5065L10.21 6.61H11.0634Z" fill="white"/>
<path d="M14.5679 3H16L14.9874 10H13.5554L14.5679 3Z" fill="white"/>
</svg>