<svg width="288" height="243" viewBox="0 0 288 243" fill="none" xmlns="http://www.w3.org/2000/svg">
<path d="M40.1749 156.466C37.0681 156.466 34.0548 156.053 31.1351 155.226C28.2529 154.362 25.9321 153.253 24.1729 151.9L27.261 145.023C28.9454 146.263 30.948 147.259 33.2687 148.011C35.5895 148.762 37.9103 149.138 40.231 149.138C42.8138 149.138 44.7228 148.762 45.9581 148.011C47.1933 147.221 47.811 146.188 47.811 144.91C47.811 143.971 47.4366 143.2 46.688 142.599C45.9768 141.96 45.041 141.453 43.8806 141.077C42.7577 140.701 41.223 140.288 39.2765 139.837C36.282 139.123 33.8302 138.409 31.9212 137.695C30.0122 136.981 28.3652 135.834 26.9802 134.256C25.6327 132.678 24.9589 130.573 24.9589 127.943C24.9589 125.65 25.5765 123.583 26.8118 121.742C28.047 119.863 29.8999 118.378 32.3704 117.289C34.8783 116.199 37.929 115.654 41.5224 115.654C44.0304 115.654 46.4821 115.954 48.8778 116.556C51.2734 117.157 53.3696 118.021 55.1663 119.149L52.3589 126.082C48.728 124.015 45.0972 122.982 41.4663 122.982C38.9209 122.982 37.0306 123.395 35.7954 124.222C34.5976 125.049 33.9987 126.139 33.9987 127.492C33.9987 128.845 34.6912 129.859 36.0761 130.536C37.4985 131.175 39.6509 131.813 42.5331 132.452C45.5276 133.166 47.9794 133.88 49.8884 134.594C51.7974 135.308 53.4257 136.436 54.7732 137.977C56.1582 139.517 56.8507 141.603 56.8507 144.234C56.8507 146.489 56.2144 148.555 54.9417 150.434C53.7064 152.276 51.8349 153.742 49.3269 154.831C46.819 155.921 43.7683 156.466 40.1749 156.466Z" fill="#002863"/>
<path d="M77.3836 140.288L72.1057 145.812V155.79H63.066V116.33H72.1057V134.763L89.5115 116.33H99.618L83.3352 133.918L100.573 155.79H89.9606L77.3836 140.288Z" fill="#002863"/>
<path d="M122.237 156.466C118.157 156.466 114.47 155.583 111.176 153.817C107.919 152.05 105.355 149.627 103.483 146.545C101.649 143.426 100.732 139.931 100.732 136.06C100.732 132.189 101.649 128.713 103.483 125.631C105.355 122.512 107.919 120.07 111.176 118.303C114.47 116.537 118.157 115.654 122.237 115.654C126.317 115.654 129.985 116.537 133.242 118.303C136.498 120.07 139.062 122.512 140.934 125.631C142.805 128.713 143.741 132.189 143.741 136.06C143.741 139.931 142.805 143.426 140.934 146.545C139.062 149.627 136.498 152.05 133.242 153.817C129.985 155.583 126.317 156.466 122.237 156.466ZM122.237 148.687C124.557 148.687 126.654 148.161 128.525 147.109C130.397 146.019 131.857 144.516 132.905 142.599C133.99 140.682 134.533 138.503 134.533 136.06C134.533 133.617 133.99 131.438 132.905 129.521C131.857 127.604 130.397 126.12 128.525 125.068C126.654 123.978 124.557 123.433 122.237 123.433C119.916 123.433 117.82 123.978 115.948 125.068C114.077 126.12 112.598 127.604 111.513 129.521C110.464 131.438 109.94 133.617 109.94 136.06C109.94 138.503 110.464 140.682 111.513 142.599C112.598 144.516 114.077 146.019 115.948 147.109C117.82 148.161 119.916 148.687 122.237 148.687Z" fill="#002863"/>
<path d="M150.577 116.33H159.673V148.349H179.381V155.79H150.577V116.33Z" fill="#002863"/>
<path d="M210.676 147.334H192.428L188.947 155.79H179.626L197.144 116.33H206.128L223.702 155.79H214.157L210.676 147.334ZM207.813 140.401L201.58 125.293L195.348 140.401H207.813Z" fill="#002863"/>
<path d="M263.827 116.33V155.79H256.359L236.764 131.832V155.79H227.78V116.33H235.304L254.843 140.288V116.33H263.827Z" fill="#002863"/>
<path d="M10 5.49039H5.49039V10V171.058V175.567H10H122.096V225.817V234.376L129.156 229.537L207.888 175.567H278H282.51V171.058V10V5.49039H278H10Z" stroke="black" stroke-width="9.01923"/>
<path d="M106.695 78.6092H77.9326L70.1146 91.7356H49.9424L93.2789 24.1731H112.1L128.411 91.7356H109.397L106.695 78.6092ZM103.799 64.5176L99.263 42.608L86.3296 64.5176H103.799Z" fill="black"/>
<path d="M176.008 24.1731C184.758 24.1731 191.515 26.0713 196.276 29.8677C201.038 33.664 203.419 39.0047 203.419 45.8896C203.419 51.552 202.035 56.5066 199.268 60.7534C196.566 65.0002 192.673 68.2818 187.59 70.5982C182.571 72.9146 176.715 74.0728 170.023 74.0728H156.511L153.036 91.7356H133.926L147.438 24.1731H176.008ZM170.892 59.016C175.139 59.016 178.388 58.0187 180.64 56.024C182.957 54.0293 184.115 51.1981 184.115 47.5304C184.115 44.7636 183.182 42.7045 181.316 41.3533C179.514 39.9377 176.908 39.2299 173.498 39.2299H163.46L159.503 59.016H170.892Z" fill="black"/>
<path d="M217.659 24.1731H236.769L223.257 91.7356H204.146L217.659 24.1731Z" fill="black"/>
</svg>