<svg width="288" height="243" viewBox="0 0 288 243" fill="none" xmlns="http://www.w3.org/2000/svg">
<path d="M10 5.49039H5.49039V10V171.058V175.567H10H122.096V225.817V234.376L129.156 229.537L207.888 175.567H278H282.51V171.058V10V5.49039H278H10Z" stroke="black" stroke-width="9.01923"/>
<path d="M105.8 82.4H76L67.9 96H47L91.9 26H111.4L128.3 96H108.6L105.8 82.4ZM102.8 67.8L98.1 45.1L84.7 67.8H102.8Z" fill="black"/>
<path d="M179.1 26C188.167 26 195.167 27.9667 200.1 31.9C205.033 35.8333 207.5 41.3667 207.5 48.5C207.5 54.3667 206.067 59.5 203.2 63.9C200.4 68.3 196.367 71.7 191.1 74.1C185.9 76.5 179.833 77.7 172.9 77.7H158.9L155.3 96H135.5L149.5 26H179.1ZM173.8 62.1C178.2 62.1 181.567 61.0667 183.9 59C186.3 56.9333 187.5 54 187.5 50.2C187.5 47.3333 186.533 45.2 184.6 43.8C182.733 42.3333 180.033 41.6 176.5 41.6H166.1L162 62.1H173.8Z" fill="black"/>
<path d="M220.767 26H240.567L226.567 96H206.767L220.767 26Z" fill="black"/>
<path d="M33.5301 155.902C30.1266 155.902 26.8256 155.45 23.6271 154.544C20.4697 153.597 17.9273 152.383 16 150.9L19.383 143.367C21.2283 144.725 23.4221 145.816 25.9645 146.639C28.5068 147.463 31.0492 147.875 33.5916 147.875C36.421 147.875 38.5123 147.463 39.8655 146.639C41.2187 145.775 41.8953 144.643 41.8953 143.243C41.8953 142.214 41.4852 141.37 40.6651 140.711C39.886 140.011 38.8609 139.455 37.5897 139.044C36.3595 138.632 34.6782 138.179 32.5459 137.685C29.2654 136.903 26.5796 136.121 24.4882 135.339C22.3969 134.556 20.5927 133.301 19.0755 131.572C17.5992 129.843 16.8611 127.537 16.8611 124.655C16.8611 122.144 17.5377 119.88 18.8909 117.862C20.2441 115.804 22.2739 114.178 24.9803 112.984C27.7277 111.79 31.0697 111.193 35.0063 111.193C37.7537 111.193 40.4396 111.522 43.064 112.181C45.6884 112.84 47.9847 113.787 49.953 115.022L46.8775 122.617C42.8999 120.353 38.9224 119.221 34.9448 119.221C32.1564 119.221 30.0856 119.674 28.7324 120.579C27.4202 121.485 26.7641 122.679 26.7641 124.161C26.7641 125.643 27.5227 126.755 29.0399 127.496C30.5981 128.196 32.956 128.896 36.1134 129.595C39.3939 130.378 42.0798 131.16 44.1711 131.942C46.2624 132.724 48.0462 133.959 49.5224 135.647C51.0396 137.335 51.7982 139.62 51.7982 142.502C51.7982 144.972 51.1011 147.236 49.7069 149.295C48.3537 151.312 46.3034 152.918 43.556 154.112C40.8086 155.306 37.4666 155.902 33.5301 155.902Z" fill="#002863"/>
<path d="M71.3643 138.179L65.5824 144.231V155.161H55.6795V111.934H65.5824V132.127L84.6504 111.934H95.722L77.8843 131.201L96.7677 155.161H85.1425L71.3643 138.179Z" fill="#002863"/>
<path d="M117.213 155.709C112.743 155.709 108.704 154.742 105.095 152.807C101.528 150.872 98.7191 148.217 96.6688 144.841C94.6595 141.424 93.6548 137.595 93.6548 133.355C93.6548 129.114 94.6595 125.306 96.6688 121.93C98.7191 118.513 101.528 115.837 105.095 113.902C108.704 111.967 112.743 111 117.213 111C121.682 111 125.701 111.967 129.269 113.902C132.836 115.837 135.645 118.513 137.695 121.93C139.746 125.306 140.771 129.114 140.771 133.355C140.771 137.595 139.746 141.424 137.695 144.841C135.645 148.217 132.836 150.872 129.269 152.807C125.701 154.742 121.682 155.709 117.213 155.709ZM117.213 147.188C119.755 147.188 122.051 146.611 124.102 145.458C126.152 144.265 127.751 142.618 128.899 140.518C130.089 138.419 130.683 136.031 130.683 133.355C130.683 130.679 130.089 128.291 128.899 126.191C127.751 124.092 126.152 122.466 124.102 121.313C122.051 120.119 119.755 119.522 117.213 119.522C114.67 119.522 112.374 120.119 110.324 121.313C108.273 122.466 106.654 124.092 105.465 126.191C104.316 128.291 103.742 130.679 103.742 133.355C103.742 136.031 104.316 138.419 105.465 140.518C106.654 142.618 108.273 144.265 110.324 145.458C112.374 146.611 114.67 147.188 117.213 147.188Z" fill="#002863"/>
<path d="M144.33 111.934H154.295V147.01H175.884V155.161H144.33V111.934Z" fill="#002863"/>
<path d="M213.538 145.898H193.548L189.734 155.161H179.524L198.714 111.934H208.556L227.808 155.161H217.352L213.538 145.898ZM210.401 138.303L203.574 121.753L196.746 138.303H210.401Z" fill="#002863"/>
<path d="M271 111.934V155.161H262.819L241.353 128.916V155.161H231.511V111.934H239.754L261.159 138.179V111.934H271Z" fill="#002863"/>
</svg>
