<svg width="738" height="197" viewBox="0 0 738 197" fill="none" xmlns="http://www.w3.org/2000/svg">
<path d="M280.72 116C274.173 116 267.823 115.129 261.671 113.387C255.598 111.565 250.707 109.229 247 106.378L253.507 91.8867C257.057 94.5 261.277 96.5985 266.167 98.1823C271.057 99.7661 275.948 100.558 280.838 100.558C286.28 100.558 290.303 99.7661 292.906 98.1823C295.509 96.5193 296.81 94.3416 296.81 91.6491C296.81 89.6694 296.022 88.046 294.444 86.779C292.945 85.4327 290.974 84.3637 288.528 83.5718C286.162 82.7799 282.928 81.9088 278.827 80.9585C272.516 79.4539 267.35 77.9493 263.327 76.4447C259.305 74.9401 255.834 72.5248 252.916 69.1989C250.076 65.8729 248.656 61.4383 248.656 55.895C248.656 51.0644 249.958 46.709 252.561 42.8287C255.164 38.8692 259.068 35.7412 264.274 33.4447C269.559 31.1482 275.987 30 283.559 30C288.844 30 294.01 30.6335 299.058 31.9005C304.106 33.1676 308.523 34.9889 312.31 37.3646L306.394 51.9751C298.743 47.6197 291.092 45.442 283.441 45.442C278.077 45.442 274.094 46.313 271.491 48.0552C268.967 49.7974 267.705 52.0939 267.705 54.9447C267.705 57.7955 269.164 59.9337 272.083 61.3591C275.08 62.7053 279.615 64.0515 285.689 65.3978C291.999 66.9024 297.165 68.407 301.188 69.9116C305.211 71.4162 308.642 73.7919 311.481 77.0386C314.4 80.2854 315.859 84.6804 315.859 90.2237C315.859 94.9751 314.518 99.3305 311.836 103.29C309.233 107.17 305.29 110.259 300.005 112.555C294.72 114.852 288.292 116 280.72 116Z" fill="#8AB9FF"/>
<path d="M353.495 81.9088L342.373 93.5497V114.575H323.325V31.4254H342.373V70.2679L379.051 31.4254H400.348L366.036 68.4862L402.359 114.575H379.998L353.495 81.9088Z" fill="#8AB9FF"/>
<path d="M441.686 115.629C433.088 115.629 425.319 113.768 418.378 110.046C411.516 106.324 406.113 101.216 402.169 94.7227C398.304 88.15 396.371 80.7853 396.371 72.6288C396.371 64.4722 398.304 57.1472 402.169 50.6536C406.113 44.0809 411.516 38.9336 418.378 35.2117C425.319 31.4897 433.088 29.6288 441.686 29.6288C450.283 29.6288 458.013 31.4897 464.875 35.2117C471.738 38.9336 477.141 44.0809 481.084 50.6536C485.028 57.1472 487 64.4722 487 72.6288C487 80.7853 485.028 88.15 481.084 94.7227C477.141 101.216 471.738 106.324 464.875 110.046C458.013 113.768 450.283 115.629 441.686 115.629ZM441.686 99.2365C446.576 99.2365 450.993 98.1279 454.937 95.9106C458.881 93.6141 461.957 90.4465 464.165 86.4078C466.453 82.3691 467.597 77.7761 467.597 72.6288C467.597 67.4815 466.453 62.8885 464.165 58.8498C461.957 54.8111 458.881 51.6831 454.937 49.4658C450.993 47.1693 446.576 46.0211 441.686 46.0211C436.795 46.0211 432.378 47.1693 428.435 49.4658C424.491 51.6831 421.375 54.8111 419.088 58.8498C416.879 62.8885 415.775 67.4815 415.775 72.6288C415.775 77.7761 416.879 82.3691 419.088 86.4078C421.375 90.4465 424.491 93.6141 428.435 95.9106C432.378 98.1279 436.795 99.2365 441.686 99.2365Z" fill="#8AB9FF"/>
<path d="M493.847 31.4254H513.014V98.895H554.542V114.575H493.847V31.4254Z" fill="#8AB9FF"/>
<path d="M626.97 96.7569H588.518L581.182 114.575H561.542L598.456 31.4254H617.387L654.419 114.575H634.306L626.97 96.7569ZM620.936 82.1464L607.803 50.3121L594.67 82.1464H620.936Z" fill="#8AB9FF"/>
<path d="M737.5 31.4254V114.575H721.764L680.473 64.0911V114.575H661.542V31.4254H677.396L718.57 81.9088V31.4254H737.5Z" fill="#8AB9FF"/>
<path d="M10 5H5V10V135V140H10H45.5V177.5V186.989L53.327 181.624L114.049 140H218H223V135V10V5H218H10Z" stroke="white" stroke-width="10"/>
<path d="M75.8 94.4H46L37.9 108H17L61.9 38H81.4L98.3 108H78.6L75.8 94.4ZM72.8 79.8L68.1 57.1L54.7 79.8H72.8Z" fill="white"/>
<path d="M149.1 38C158.167 38 165.167 39.9667 170.1 43.9C175.033 47.8333 177.5 53.3667 177.5 60.5C177.5 66.3667 176.067 71.5 173.2 75.9C170.4 80.3 166.367 83.7 161.1 86.1C155.9 88.5 149.833 89.7 142.9 89.7H128.9L125.3 108H105.5L119.5 38H149.1ZM143.8 74.1C148.2 74.1 151.567 73.0667 153.9 71C156.3 68.9333 157.5 66 157.5 62.2C157.5 59.3333 156.533 57.2 154.6 55.8C152.733 54.3333 150.033 53.6 146.5 53.6H136.1L132 74.1H143.8Z" fill="white"/>
<path d="M190.767 38H210.567L196.567 108H176.767L190.767 38Z" fill="white"/>
</svg>
