<svg width="752" height="197" viewBox="0 0 752 197" fill="none" xmlns="http://www.w3.org/2000/svg">
<path d="M280.72 116C274.173 116 267.823 115.129 261.671 113.387C255.598 111.565 250.707 109.229 247 106.378L253.507 91.8867C257.057 94.5 261.277 96.5985 266.167 98.1823C271.057 99.7661 275.948 100.558 280.838 100.558C286.28 100.558 290.303 99.7661 292.906 98.1823C295.509 96.5193 296.81 94.3416 296.81 91.6492C296.81 89.6694 296.022 88.046 294.444 86.779C292.945 85.4328 290.974 84.3637 288.528 83.5718C286.162 82.7799 282.928 81.9088 278.827 80.9586C272.516 79.454 267.35 77.9494 263.327 76.4448C259.305 74.9401 255.834 72.5249 252.916 69.1989C250.076 65.8729 248.656 61.4383 248.656 55.895C248.656 51.0645 249.958 46.709 252.561 42.8287C255.164 38.8692 259.068 35.7412 264.274 33.4447C269.559 31.1482 275.987 30 283.559 30C288.844 30 294.01 30.6335 299.058 31.9005C304.106 33.1676 308.523 34.989 312.31 37.3646L306.394 51.9751C298.743 47.6197 291.092 45.442 283.441 45.442C278.077 45.442 274.094 46.3131 271.491 48.0553C268.967 49.7974 267.705 52.0939 267.705 54.9447C267.705 57.7956 269.164 59.9337 272.083 61.3591C275.08 62.7053 279.615 64.0516 285.689 65.3978C291.999 66.9024 297.165 68.407 301.188 69.9116C305.211 71.4162 308.642 73.7919 311.481 77.0387C314.4 80.2855 315.859 84.6805 315.859 90.2238C315.859 94.9751 314.518 99.3306 311.836 103.29C309.233 107.17 305.29 110.259 300.005 112.555C294.72 114.852 288.292 116 280.72 116Z" fill="#002863"/>
<path d="M359.126 81.9088L348.004 93.5497V114.575H328.956V31.4254H348.004V70.268L384.682 31.4254H405.979L371.667 68.4862L407.99 114.575H385.628L359.126 81.9088Z" fill="#002863"/>
<path d="M453.641 116C445.043 116 437.274 114.139 430.333 110.417C423.471 106.695 418.068 101.587 414.124 95.0939C410.259 88.5212 408.326 81.1565 408.326 73C408.326 64.8435 410.259 57.5184 414.124 51.0249C418.068 44.4521 423.471 39.3048 430.333 35.5829C437.274 31.861 445.043 30 453.641 30C462.238 30 469.968 31.861 476.83 35.5829C483.693 39.3048 489.096 44.4521 493.039 51.0249C496.983 57.5184 498.955 64.8435 498.955 73C498.955 81.1565 496.983 88.5212 493.039 95.0939C489.096 101.587 483.693 106.695 476.83 110.417C469.968 114.139 462.238 116 453.641 116ZM453.641 99.6077C458.531 99.6077 462.948 98.4991 466.892 96.2818C470.836 93.9853 473.912 90.8177 476.12 86.779C478.408 82.7403 479.552 78.1473 479.552 73C479.552 67.8527 478.408 63.2597 476.12 59.221C473.912 55.1823 470.836 52.0543 466.892 49.837C462.948 47.5405 458.531 46.3923 453.641 46.3923C448.75 46.3923 444.333 47.5405 440.389 49.837C436.446 52.0543 433.33 55.1823 431.043 59.221C428.834 63.2597 427.73 67.8527 427.73 73C427.73 78.1473 428.834 82.7403 431.043 86.779C433.33 90.8177 436.446 93.9853 440.389 96.2818C444.333 98.4991 448.75 99.6077 453.641 99.6077Z" fill="#002863"/>
<path d="M513.36 31.4254H532.527V98.895H574.055V114.575H513.36V31.4254Z" fill="#002863"/>
<path d="M640.001 96.7569H601.548L594.213 114.575H574.573L611.487 31.4254H630.417L667.45 114.575H647.336L640.001 96.7569ZM633.967 82.1464L620.834 50.3122L607.701 82.1464H633.967Z" fill="#002863"/>
<path d="M752 31.4254V114.575H736.264L694.972 64.0912V114.575H676.042V31.4254H691.896L733.07 81.9088V31.4254H752Z" fill="#002863"/>
<path d="M10 5H5V10V135V140H10H45.5V177.5V186.989L53.327 181.624L114.049 140H218H223V135V10V5H218H10Z" stroke="black" stroke-width="10"/>
<path d="M75.8 94.4H46L37.9 108H17L61.9 38H81.4L98.3 108H78.6L75.8 94.4ZM72.8 79.8L68.1 57.1L54.7 79.8H72.8Z" fill="black"/>
<path d="M147.613 38C156.68 38 163.68 39.9667 168.613 43.9C173.547 47.8333 176.013 53.3667 176.013 60.5C176.013 66.3667 174.58 71.5 171.713 75.9C168.913 80.3 164.88 83.7 159.613 86.1C154.413 88.5 148.347 89.7 141.413 89.7H127.413L123.813 108H104.013L118.013 38H147.613ZM142.313 74.1C146.713 74.1 150.08 73.0667 152.413 71C154.813 68.9333 156.013 66 156.013 62.2C156.013 59.3333 155.047 57.2 153.113 55.8C151.247 54.3333 148.547 53.6 145.013 53.6H134.613L130.513 74.1H142.313Z" fill="black"/>
<path d="M190.767 38H210.567L196.567 108H176.767L190.767 38Z" fill="black"/>
</svg>