<svg width="288" height="243" viewBox="0 0 288 243" fill="none" xmlns="http://www.w3.org/2000/svg">
<path d="M40.175 156.466C37.0682 156.466 34.0549 156.053 31.1353 155.226C28.253 154.362 25.9323 153.253 24.173 151.9L27.2611 145.023C28.9455 146.263 30.9481 147.259 33.2689 148.011C35.5896 148.762 37.9104 149.138 40.2312 149.138C42.8139 149.138 44.723 148.762 45.9582 148.011C47.1935 147.221 47.8111 146.188 47.8111 144.91C47.8111 143.971 47.4368 143.2 46.6881 142.599C45.9769 141.96 45.0411 141.453 43.8808 141.077C42.7578 140.701 41.2231 140.288 39.2767 139.837C36.2821 139.123 33.8303 138.409 31.9213 137.695C30.0123 136.981 28.3653 135.834 26.9803 134.256C25.6328 132.678 24.959 130.573 24.959 127.943C24.959 125.65 25.5767 123.583 26.8119 121.742C28.0472 119.863 29.9 118.378 32.3705 117.289C34.8784 116.199 37.9291 115.654 41.5226 115.654C44.0305 115.654 46.4823 115.954 48.8779 116.556C51.2735 117.157 53.3697 118.021 55.1664 119.149L52.359 126.082C48.7282 124.015 45.0973 122.982 41.4664 122.982C38.9211 122.982 37.0308 123.395 35.7955 124.222C34.5977 125.049 33.9988 126.139 33.9988 127.492C33.9988 128.845 34.6913 129.859 36.0762 130.536C37.4987 131.175 39.651 131.813 42.5332 132.452C45.5277 133.166 47.9795 133.88 49.8885 134.594C51.7976 135.308 53.4258 136.436 54.7734 137.977C56.1583 139.517 56.8508 141.603 56.8508 144.234C56.8508 146.489 56.2145 148.555 54.9418 150.434C53.7066 152.276 51.835 153.742 49.3271 154.831C46.8191 155.921 43.7685 156.466 40.175 156.466Z" fill="#8AB9FF"/>
<path d="M77.3837 140.288L72.1058 145.812V155.79H63.0661V116.33H72.1058V134.763L89.5116 116.33H99.6181L83.3354 133.918L100.573 155.79H89.9608L77.3837 140.288Z" fill="#8AB9FF"/>
<path d="M122.237 156.466C118.157 156.466 114.47 155.583 111.176 153.817C107.919 152.05 105.355 149.627 103.484 146.545C101.649 143.426 100.732 139.931 100.732 136.06C100.732 132.189 101.649 128.713 103.484 125.631C105.355 122.512 107.919 120.07 111.176 118.303C114.47 116.537 118.157 115.654 122.237 115.654C126.317 115.654 129.985 116.537 133.242 118.303C136.498 120.07 139.062 122.512 140.934 125.631C142.806 128.713 143.741 132.189 143.741 136.06C143.741 139.931 142.806 143.426 140.934 146.545C139.062 149.627 136.498 152.05 133.242 153.817C129.985 155.583 126.317 156.466 122.237 156.466ZM122.237 148.687C124.558 148.687 126.654 148.161 128.525 147.109C130.397 146.019 131.857 144.516 132.905 142.599C133.99 140.682 134.533 138.503 134.533 136.06C134.533 133.617 133.99 131.438 132.905 129.521C131.857 127.604 130.397 126.12 128.525 125.068C126.654 123.978 124.558 123.433 122.237 123.433C119.916 123.433 117.82 123.978 115.948 125.068C114.077 126.12 112.598 127.604 111.513 129.521C110.465 131.438 109.94 133.617 109.94 136.06C109.94 138.503 110.465 140.682 111.513 142.599C112.598 144.516 114.077 146.019 115.948 147.109C117.82 148.161 119.916 148.687 122.237 148.687Z" fill="#8AB9FF"/>
<path d="M150.577 116.33H159.673V148.349H179.381V155.79H150.577V116.33Z" fill="#8AB9FF"/>
<path d="M210.676 147.334H192.428L188.947 155.79H179.627L197.145 116.33H206.128L223.702 155.79H214.157L210.676 147.334ZM207.813 140.401L201.58 125.293L195.348 140.401H207.813Z" fill="#8AB9FF"/>
<path d="M263.827 116.33V155.79H256.359L236.764 131.832V155.79H227.78V116.33H235.304L254.843 140.288V116.33H263.827Z" fill="#8AB9FF"/>
<path d="M10 5.49039H5.49039V10V171.058V175.567H10H122.096V225.817V234.376L129.156 229.537L207.888 175.567H278H282.51V171.058V10V5.49039H278H10Z" stroke="white" stroke-width="9.01923"/>
<path d="M106.695 78.6092H77.9325L70.1146 91.7356H49.9423L93.2789 24.1731H112.1L128.411 91.7356H109.397L106.695 78.6092ZM103.799 64.5176L99.263 42.608L86.3296 64.5176H103.799Z" fill="white"/>
<path d="M176.007 24.1731C184.758 24.1731 191.515 26.0713 196.276 29.8677C201.038 33.664 203.419 39.0047 203.419 45.8896C203.419 51.552 202.035 56.5066 199.268 60.7534C196.566 65.0002 192.673 68.2818 187.59 70.5982C182.571 72.9146 176.715 74.0728 170.023 74.0728H156.511L153.036 91.7356H133.926L147.438 24.1731H176.007ZM170.892 59.016C175.139 59.016 178.388 58.0187 180.64 56.024C182.957 54.0293 184.115 51.1981 184.115 47.5304C184.115 44.7636 183.182 42.7045 181.316 41.3533C179.514 39.9377 176.908 39.2299 173.498 39.2299H163.46L159.503 59.016H170.892Z" fill="white"/>
<path d="M217.659 24.1731H236.769L223.257 91.7356H204.146L217.659 24.1731Z" fill="white"/>
</svg>